<?xml version="1.0" encoding="UTF-8"?>
<svg viewBox="0 0 1200 495" fill="currentColor">
    <path d="M1150.31,71.346C1178.89,75.6 1200.71,101.013 1199.98,129.204C1199.97,129.756 1199.94,130.304 1199.91,130.848C1199.47,137.425 1189.16,292.7 1188.18,304.852C1185.88,333 1163.34,357.594 1135.72,362.052C1129.38,363.048 1119.13,364.53 1110.04,365.825L1104.02,403.538C1096.84,444.857 1069.06,469.621 1029.72,469.621L720.907,469.621C708.365,485.436 690.355,494.892 671.573,494.986L518.077,494.986C499.167,494.888 481.119,485.417 468.559,469.621L160.569,469.621C122.658,469.621 92.035,442.025 86.102,402.519L80.06,364.363C73.494,363.467 67.437,362.619 63.929,362.069C36.196,357.594 13.616,333 11.333,304.836C11.241,303.719 0.156,135.008 0.041,131.519C-1.148,97.706 23.471,75.715 48.414,71.473C51.702,70.925 72.083,67.294 74.746,66.831C87.621,52.531 105.106,43.55 123.902,41.804C222.431,32.679 294.702,31.698 378.375,30.548L379.004,30.544C392.304,30.365 405.904,30.179 419.913,29.954C431.459,16.098 448.148,6.96 465.84,5.296C504.84,1.827 549.025,0 593.744,0C638.465,0 682.636,1.823 721.473,5.275C739.478,6.965 755.886,15.783 767.359,29.481C787.411,29.881 807.349,30.16 826.73,30.429C907.463,31.579 990.951,32.756 1084.06,41.825C1103.25,43.694 1121.49,53.473 1134.42,68.496C1139.94,69.54 1146.92,70.835 1150.31,71.346ZM1147.16,92.469C1140.96,91.544 1125.32,88.488 1122.45,87.957C1113.17,74.107 1098.12,64.653 1082,63.073C989.762,54.098 906.733,52.921 826.429,51.788C803.464,51.465 779.833,51.13 756.102,50.619C748.664,37.325 735.054,27.996 719.585,26.548C681.356,23.15 637.841,21.35 593.745,21.35C549.651,21.35 506.147,23.15 467.841,26.557C452.428,28 438.605,37.665 431.189,51.121C413.045,51.44 395.618,51.678 378.672,51.903C295.434,53.04 223.549,54.017 125.874,63.069C110.195,64.525 95.697,73.261 86.318,86.492C80.505,87.451 58.359,91.469 51.999,92.521C36.699,95.128 20.593,108.207 21.384,130.78C21.39,130.94 32.153,297.422 32.618,303.111C34.107,321.447 49.293,338.078 67.255,340.976C75.013,342.199 96.701,345.042 98.657,345.303L107.218,399.342C111.551,428.145 133.486,448.263 160.568,448.263L479.968,448.263C487.437,462.105 501.374,473.543 518.076,473.634L671.468,473.634C688.104,473.545 702.027,462.105 709.491,448.263L1029.72,448.263C1046.47,448.263 1075.66,441.961 1083.01,399.726C1083.02,399.653 1083.04,399.574 1083.04,399.497L1091.43,346.886C1092.55,346.732 1120.22,342.865 1132.33,340.967C1150.22,338.078 1165.4,321.457 1166.9,303.119C1167.88,290.99 1178.6,129.407 1178.6,129.407C1178.62,129.153 1178.63,128.907 1178.63,128.657C1179.09,111.055 1165.27,95.161 1147.16,92.469ZM1129.61,324.194C1112.6,326.87 1093.65,329.382 1076.64,331.811L1066.27,396.82C1062.99,415.768 1054.11,431.282 1029.72,431.282L697.874,431.282C695.331,443.474 684.435,456.582 671.383,456.645L518.076,456.645C505.018,456.574 494.124,443.474 491.583,431.282L160.568,431.282C141.538,431.282 127.057,417.036 124.022,396.82L113.468,330.195C100.241,328.261 83.126,326.274 69.899,324.194C59.572,322.53 50.413,312.411 49.547,301.74C49.013,295.188 48.436,289.03 47.913,283.705L46.938,267.813L78.905,267.813C81.026,267.813 82.749,266.078 82.749,263.932L82.749,252.276C82.749,250.136 81.026,248.394 78.905,248.394L45.74,248.394L42.068,188.307L75.09,188.307C77.215,188.307 78.934,186.565 78.934,184.421L78.934,172.769C78.934,170.63 77.215,168.89 75.09,168.89L40.868,168.89L38.359,130.178C37.901,117.086 46.67,110.665 54.851,109.271C70.109,106.738 81.495,104.346 96.776,102.023C102.522,90.313 114.097,81.225 127.443,79.986C248.636,68.755 330.959,70.021 442.949,67.9C445.362,55.282 456.285,44.705 469.433,43.465C546.333,36.628 641.179,36.628 718.083,43.465C731.033,44.68 741.831,54.98 744.46,67.34C855.277,70.021 958.491,68.121 1080.35,79.986C1094.17,81.332 1106.12,90.996 1111.61,103.359C1123.93,105.265 1132,107.384 1144.66,109.271C1153.58,110.598 1161.89,118.84 1161.66,128.211L1158.8,168.89L1121.81,168.89C1119.69,168.89 1117.97,170.63 1117.97,172.769L1117.97,184.421C1117.97,186.565 1119.69,188.307 1121.81,188.307L1157.57,188.307L1154.28,248.394L1118.01,248.394C1115.87,248.394 1114.15,250.136 1114.15,252.276L1114.15,263.932C1114.15,266.078 1115.87,267.813 1118.01,267.813L1153.03,267.813C1152.45,273.909 1150.79,291.599 1149.96,301.74C1149.1,312.411 1139.94,322.53 1129.61,324.194ZM480.706,258.427C496.464,266.399 516.857,271.219 534.469,271.219C564.688,271.219 595.092,254.719 595.092,221.348C595.092,197.618 579.52,186.124 558.014,181.304L546.52,178.708C542.627,177.781 536.323,177.04 536.323,171.849C536.323,166.102 542.812,164.433 547.261,164.433C558.2,164.433 568.025,169.068 576.739,175.001L590.458,139.22C576.739,130.877 562.093,126.984 546.149,126.984C515.745,126.984 485.526,145.523 485.526,178.708C485.526,200.585 502.211,212.264 522.048,215.787L532.245,217.641C536.88,218.568 543.554,219.124 543.554,225.427C543.554,231.73 535.582,233.77 530.576,233.77C518.897,233.77 507.958,228.023 498.874,220.978L496.279,218.938L480.706,258.427ZM601.727,372.732C608.089,378.317 616.814,381.144 625.973,381.144C638.541,381.144 646.881,374.974 646.881,364.596L646.881,364.451C646.881,354.948 639.498,351.165 627.591,348.619C620.433,347.021 618.666,345.998 618.666,343.676L618.666,343.53C618.666,341.717 620.354,340.265 623.827,340.265C628.414,340.265 633.581,342.007 638.308,345.28L645.475,335.332C639.873,330.89 632.975,328.582 624.206,328.582C611.777,328.582 604.164,335.409 604.164,344.834L604.164,344.976C604.164,355.446 612.656,358.482 623.685,360.967C630.698,362.563 632.398,363.717 632.398,365.832L632.398,365.978C632.398,368.155 630.329,369.459 626.487,369.459C620.504,369.459 614.8,367.349 609.706,363.357L601.727,372.732ZM653.654,329.446L653.654,380.277L695.604,380.277L695.604,368.294L667.824,368.294L667.824,360.231L692.647,360.231L692.647,349.123L667.824,349.123L667.824,341.425L695.233,341.425L695.233,329.446L653.654,329.446ZM918.298,329.446L918.298,380.277L932.344,380.277L932.344,351.241L945.5,370.979L945.788,370.979L959.011,351.077L959.011,380.277L973.28,380.277L973.28,329.446L958.127,329.446L945.788,349.123L933.448,329.446L918.298,329.446ZM998.9,329.09L976.887,380.278L991.946,380.278L995.637,371.213L1015.6,371.213L1019.38,380.278L1034.75,380.278L1012.71,329.09L998.9,329.09ZM1011.47,360.232L999.86,360.232L1005.7,345.78L1011.47,360.232ZM487.586,355.009C487.586,369.607 499.411,381.301 515.368,381.301C531.324,381.301 543.299,369.463 543.299,354.865L543.299,354.711C543.299,340.122 531.474,328.413 515.513,328.413C499.559,328.413 487.586,340.28 487.586,354.865L487.586,355.009ZM528.672,355.009C528.672,362.342 523.426,368.584 515.513,368.584C507.686,368.584 502.286,362.205 502.286,354.865L502.286,354.711C502.286,347.374 507.532,341.14 515.368,341.14C523.276,341.14 528.672,347.53 528.672,354.865L528.672,355.009ZM272.857,380.278L287.577,380.278L291.279,371.213L311.214,371.213L315,380.278L330.362,380.278L308.344,329.09L294.531,329.09L272.635,379.96L260.513,362.564C266.943,359.87 271.157,354.712 271.157,346.945L271.157,346.8C271.157,341.781 269.601,337.866 266.574,334.979C263.107,331.481 257.628,329.437 249.726,329.437L225.276,329.437L225.276,380.279L239.603,380.279L239.603,364.877L245.89,364.877L256.303,380.279L272.857,380.278ZM307.092,360.232L295.487,360.232L301.325,345.78L307.092,360.232ZM249.059,353.85L239.603,353.85L239.603,341.647L248.978,341.647C253.799,341.647 256.743,343.675 256.743,347.658L256.743,347.818C256.743,351.51 253.94,353.85 249.059,353.85ZM549.175,357.982C549.175,373.892 558.42,381.219 573.112,381.219C587.82,381.219 597.354,374.027 597.354,357.623L597.354,329.446L582.793,329.446L582.793,358.044C582.793,365.177 579.031,368.521 573.262,368.521C567.493,368.521 563.733,365.021 563.733,357.696L563.733,329.446L549.175,329.446L549.175,357.982ZM722.481,355.009C722.481,370.176 734.387,381.301 749.16,381.301C760.608,381.301 767.181,376.426 772.068,369.817L761.268,362.278C758.166,365.978 754.989,368.457 749.602,368.457C742.352,368.457 737.271,362.49 737.271,354.865L737.271,354.711C737.271,347.307 742.352,341.28 749.602,341.28C754.554,341.28 757.952,343.607 760.9,347.234L771.693,339.03C767.116,332.788 760.318,328.413 749.758,328.413C734.077,328.413 722.481,340.045 722.481,354.865L722.481,355.009ZM778.858,329.442L778.858,380.277L793.262,380.277L793.262,329.442L778.858,329.442ZM806.394,329.446L806.394,380.277L820.588,380.277L820.588,352.389L842.682,380.277L855.242,380.277L855.242,329.446L841.049,329.446L841.049,356.312L819.769,329.446L806.394,329.446ZM866.801,329.446L866.801,380.277L908.772,380.277L908.772,368.294L880.993,368.294L880.993,360.231L905.815,360.231L905.815,349.123L880.993,349.123L880.993,341.425L908.405,341.425L908.405,329.446L866.801,329.446ZM153.119,268.994L204.287,268.994L204.287,220.051L241.551,220.051L241.551,183.714L204.287,183.714L204.287,169.253L246.742,169.253L246.742,129.209L153.119,129.209L153.119,268.994ZM169.376,329.446L169.376,380.278L189.042,380.278C207.655,380.278 218.513,369.39 218.513,354.713L218.513,354.563C218.513,339.892 207.801,329.446 189.328,329.446L169.376,329.446ZM189.555,367.778L183.709,367.778L183.709,341.94L189.555,341.94C198.115,341.94 203.813,346.655 203.813,354.78L203.813,354.948C203.813,363.134 198.115,367.778 189.555,367.778ZM336.206,329.446L336.206,380.277L350.548,380.277L350.548,362.133L375.008,362.133L375.008,350.418L350.548,350.418L350.548,341.781L377.598,341.781L377.598,329.446L336.206,329.446ZM396.33,341.781L396.33,380.279L410.661,380.279L410.661,341.781L426.191,341.781L426.191,329.445L380.813,329.445L380.813,341.781L396.33,341.781ZM920.455,268.994L970.14,268.994L970.14,224.129L971.067,224.129L993.314,268.994L1051.9,268.994L1021.49,223.573C1018.71,219.495 1015.56,217.27 1012.97,215.231L1012.97,214.118C1031.88,207.815 1040.03,198.916 1040.03,177.781C1040.03,142.557 1013.34,129.209 981.819,129.209L920.455,129.209L920.455,268.994ZM970.14,167.4L974.033,167.4C982.746,167.4 990.347,168.697 990.347,179.45C990.347,189.832 982.005,191.13 973.662,191.13L970.14,191.13L970.14,167.4ZM432.527,329.446L432.527,380.277L446.846,380.277L446.846,360.966L465.256,360.966L465.256,380.277L479.59,380.277L479.59,329.446L465.256,329.446L465.256,348.466L446.846,348.466L446.846,329.446L432.527,329.446ZM364.836,126.984C322.381,126.984 287.528,155.534 287.528,199.472C287.528,244.337 322.196,271.219 364.836,271.219C407.476,271.219 442.144,244.337 442.144,199.472C442.144,155.534 407.291,126.984 364.836,126.984ZM364.836,172.961C380.965,172.961 390.976,185.383 390.976,200.214C390.976,216.158 380.224,227.096 364.836,227.096C349.449,227.096 338.696,216.158 338.696,200.214C338.696,185.383 348.707,172.961 364.836,172.961ZM629.019,174.63L657.013,173.332L657.013,268.994L707.811,268.994L707.811,173.332L735.805,174.63L735.805,129.209L629.019,129.209L629.019,174.63ZM776.22,268.994L871.697,268.994L871.697,230.803L827.388,230.803L827.388,217.084L866.506,217.084L866.506,180.748L827.388,180.748L827.388,167.4L870.214,167.4L870.214,129.209L776.22,129.209L776.22,268.994Z" />
</svg>
